<svg xmlns="http://www.w3.org/2000/svg" id="svg" version="1.1" viewBox="23.93 75.89 355.96 124.76"><g id="svgg" fill-rule="evenodd" stroke="none"><path id="path0" fill="#9b4bb3" d="M147.619 132.082c-.885.13-2.806.559-4.127.923-2.799.77-6.041 2.554-7.778 4.28-.644.64-.891.777-.891 2.148 0 5.601-3.889 12.225-10.025 16.817-.926.693-1.803 1.568-1.894 1.641-.09.072.195.314.635.538 1.69.86 4.915 3.848 6.826 6.326 1.213 1.572 2.119 1.534 2.124-.088.008-2.629 3.001-7.471 5.484-8.871 1.828-1.031 2.405-1.26 3.826-1.516 2.038-.368 2.866-.332 5.13.224.496.122 1.018.247 1.16.278a.965.965 0 0 1 .406.203c.081.081.291.147.467.147.521 0 2.917 1.662 3.782 2.624 1.744 1.938 2.186 1.606 2.163-1.627-.017-2.261.22-5.106.447-5.388.048-.059.052-.075.289-1.111.094-.408.512-1.408.929-2.223 1.835-3.579 4.374-5.711 7.555-6.342.233-.046.993-.226 1.69-.399.77-.192 1.848-.282 2.749-.228 1.843.109 2.242-.004 2.152-.61-.067-.454-2.298-2.239-2.817-2.255-.136-.004-.278-.086-.317-.183-.091-.227-3.036-1.94-3.335-1.94-.125 0-.228-.075-.228-.166 0-.165-.532-.416-2.328-1.098-2.598-.988-4.312-1.487-6.243-1.816-.233-.04-.662-.126-.953-.193-.86-.196-5.732-.263-6.878-.095m-97.482 4.306c-.05.051-.757.139-1.569.196-1.259.089-3.879.481-5.817.871-6.083 1.225-12.596 5.782-16.493 11.537-.59.872-1.073 1.653-1.073 1.735 0 .083-.286.575-.635 1.092-.703 1.042-.809 1.72-.3 1.915.532.204.545.196 2.06-1.232 3.807-3.591 5.639-4.263 8.369-3.068.933.409 2.358 1.756 2.358 2.23 0 .142.089.29.198.329 1.052.375 1.284 6.362.432 11.182-.378 2.142-.402 2.63-.136 2.799.537.342 1.132.116 1.963-.745 1.325-1.372 3.71-3.098 5.268-3.81 1.221-.559 3.981-.87 4.868-.549.554.201 1.142.386 1.269.398 1.503.148 6.456 5.009 7.55 7.409.185.408.537 1.193.782 1.746.712 1.605 1.824 1.229 2.039-.688.126-1.115 1.819-3.849 3.226-5.211 1.549-1.497 1.8-1.625 2.705-1.375 1.051.29 1.621-.054 1.537-.927l-.061-.635-1.703-.586c-11.086-.78-16.52-9.4-14.567-23.118.136-.958-.471-1.217-.789-1.387-.382-.205-1.316-.272-1.481-.108m227.002.866c-4.55 1-7.298 3.33-8.843 7.498-1.147 3.093-.696 13.814.701 16.657 4.482 9.125 23.419 7.715 25.915-1.93.893-3.451.797-3.523-4.569-3.452l-4.311.058-.741 1.481c-1.525 3.05-5.898 3.455-7.334.679-.514-.996-.795-5.499-.547-8.782.319-4.22.972-5.019 4.109-5.019 2.282 0 2.733.28 3.772 2.331.907 1.792.774 1.748 5.403 1.775 4.557.027 4.655-.018 4.483-2.074-.575-6.858-9.058-11.196-18.038-9.222m-98.507.51c-.123.23-.219 1.805-.219 3.598 0 4.3-.306 4.035 4.656 4.035h3.809v10.556c0 9.561.033 10.583.35 10.846.591.491 8.189.414 8.69-.087.351-.351.382-1.124.437-10.846l.059-10.469h3.65c4.927 0 4.592.299 4.592-4.097 0-2.391-.077-3.515-.254-3.692-.501-.501-25.499-.35-25.77.156m29.241-.156c-.451.451-.357 28.815.096 29.191.624.519 8.273.412 8.662-.12.237-.324.3-1.36.3-4.921v-4.509l1.429.003 1.428.003 2.201 4.543c2.784 5.746 2.203 5.275 6.615 5.366 6.546.136 6.428.417 2.674-6.393-2.72-4.934-2.833-5.187-2.41-5.386 2.553-1.2 4.36-4.539 4.36-8.054 0-5.134-2.885-8.54-8.184-9.663-1.918-.406-16.773-.458-17.171-.06m90.37 0c-.45.451-.357 28.815.096 29.191.496.413 7.36.523 8.116.13l.529-.274.106-4.953.106-4.952 3.448 5.004c4.071 5.909 3.306 5.439 8.866 5.441 6.355.002 6.346.478.176-8.465-2.609-3.783-4.749-7.003-4.755-7.155-.006-.152 1.953-3.101 4.352-6.553 5.894-8.48 5.963-7.668-.647-7.668H313.9l-.495.598c-.272.329-1.781 2.462-3.352 4.74l-2.857 4.142-.057-4.459c-.037-2.854-.142-4.56-.291-4.739-.318-.384-8.223-.409-8.605-.028m28.995 0c-.451.451-.357 28.815.096 29.191.5.416 21.709.534 22.507.126.523-.267.53-.309.588-3.283.084-4.297.944-3.854-7.473-3.854h-7.083v-4.232h6.448c7.627 0 6.885.384 6.885-3.572 0-3.716.635-3.413-7.137-3.413h-6.196v-3.792l6.765-.062c6.164-.055 6.799-.095 7.143-.439.497-.497.57-5.992.087-6.574-.375-.452-22.181-.545-22.63-.096m26.667 0c-.451.451-.358 28.815.096 29.191.624.519 8.272.412 8.662-.12.237-.324.3-1.36.3-4.921v-4.509l1.429.003 1.428.003 2.201 4.543c2.783 5.746 2.202 5.275 6.615 5.366 6.545.136 6.428.417 2.674-6.393-2.72-4.934-2.833-5.187-2.41-5.386 2.552-1.2 4.359-4.539 4.359-8.054 0-5.134-2.884-8.54-8.183-9.663-1.919-.406-16.773-.458-17.171-.06m-103.188 1.004c-4.639 6.456-14.296 24.597-14.564 27.356l-.068.699 15.291.054 15.291.054v-.623c0-3.052-13.248-28.586-14.831-28.586-.202 0-.706.471-1.119 1.046m-28.466 6.059c.859.444 1.545 1.967 1.351 3.001-.355 1.89-1.271 2.381-4.442 2.381h-2.229v-5.714h2.339c1.712 0 2.511.089 2.981.332m146.032 0c.859.444 1.545 1.967 1.351 3.001-.355 1.89-1.271 2.381-4.442 2.381h-2.229v-5.714h2.339c1.711 0 2.51.089 2.981.332m-120.604 8.052c.193.193-.486 1.139-.818 1.139-.528 0-.811.851-.413 1.242.325.32.388.303.855-.234.666-.767 1.16-.58 1.17.444l.007.771.424-.51c.234-.281.503-.649.597-.818.136-.243.266-.257.618-.069.431.23-.013 1.121-1.584 3.177-.193.252-.916-.766-.916-1.289 0-.605-.003-.607-.625-.285-1.178.609-2.169-.328-1.819-1.721.279-1.112 1.982-2.369 2.504-1.847m9.887 1.707c.408.893.77 1.695.805 1.78.209.504-.975.388-2.304-.225-1.508-.695-1.887-.694-1.887.006 0 .268.145.411.416.411.695 0 1.128 1.119.523 1.352-.965.37-2.461-1.503-2.075-2.6.348-.989 1.129-1.228 2.324-.711 1.239.536 1.257.526.786-.461-.322-.676-.33-.805-.062-.975.572-.362.73-.209 1.474 1.423m-4.868 6.311c0 1.234.044 1.375.424 1.375.31 0 .423.141.423.53 0 .388-.113.529-.423.529-.282 0-.424.141-.424.423 0 .329-.141.423-.635.423-.493 0-.634-.094-.634-.423 0-.372-.142-.423-1.164-.423-1.52 0-1.533-.346-.089-2.332.969-1.332 1.146-1.478 1.799-1.478h.723v1.376m-1.851.638c-.583.895-.586.949-.047.949.497 0 .689-.371.591-1.14-.068-.539-.07-.538-.544.191"/><path id="path1" fill="#7434e4" d="M93.141 76.772c-4.491 2.648-8.002 8.807-8.665 15.204l-.152 1.463-.374-1.092c-1.028-3.004-2.376-.497-2.35 4.373.007 1.338.115 2.624.24 2.857.912 1.699.661 2.184-1.84 3.554-.407.223-1.026.578-1.376.79-.349.211-1.784.958-3.189 1.661-3.851 1.925-7.631 4.502-9.487 6.468-2.61 2.764-3.406 3.66-4.906 5.519-4.458 5.528-7.505 11.147-8.759 16.158l-.44 1.756c-.123.491-.14.961-.038 1.063.1.1.111.68.024 1.289-.296 2.077-.208 7.801.153 9.9 1.537 8.949 6.164 13.056 15.517 13.774 3.907.3 4.204.396 3.678 1.19-2.716 4.099-4.002 14.65-2.242 18.4.742 1.582 2.505.861 5.583-2.284.903-.923 1.583-1.48 1.522-1.248-.184.703.374 3.181 1.136 5.045 1.089 2.663 1.087 4.289-.008 6.513a72.26 72.26 0 0 0-1.095 2.304 97.802 97.802 0 0 1-.661 1.481c-.714 1.567-.547 3.827.338 4.566 3.998 3.338 14.117-3.7 12.931-8.993-.246-1.1-.176-1.376.258-1.016 2.268 1.882 8.913 1.666 11.958-.389 1.173-.792 1.114-.819 1.114.508 0 3.535 6.137 8.184 10.793 8.177 4.043-.007 5.441-2.293 3.815-6.239-.096-.233-.386-1.09-.645-1.905a22.469 22.469 0 0 0-1.186-2.871c-.393-.764-.714-1.438-.714-1.498 0-.122 2.416.401 3.069.664 10.175 4.1 12.29 12.912 3.28 13.669-2.211.186-2.328.232-2.328.906 0 .602.32.846 1.905 1.459 5.042 1.95 11.505-.31 14.377-5.027l.967-1.588-.004-2.434c-.004-2.492-.293-3.534-1.299-4.681-.264-.301-.22-.473.359-1.405.78-1.254 1.038-2.237 1.044-3.966.009-3.01-.697-3.658-2.325-2.135-2.249 2.104-3.608.217-1.563-2.172 1.151-1.345.028-2.477-1.586-1.598l-.764.415-.423-.851c-1.019-2.049-3.069-2.328-3.069-.417 0 1.03-.55.952-.872-.123-.201-.672-.199-.954.012-1.348.656-1.225-.313-1.811-1.435-.867-1.649 1.387-2.629-.897-1.193-2.78 1.184-1.552.24-2.226-1.669-1.192l-1.132.614-.122-2.142c-.113-1.998-.526-3.63-1.228-4.849-.311-.541-.069-.745 2.307-1.938 1.083-.543 2.131-1.148 2.328-1.343.197-.195 1.117-.923 2.043-1.619 4.932-3.701 8.52-8.693 9.759-13.574.68-2.681.814-7.385.261-9.112-.34-1.06-.339-1.095.027-.866 1.948 1.217 1.545-5.629-.632-10.728-.099-.233-.424-1.018-.721-1.744-2.011-4.914-8.361-12.433-11.338-13.426-.145-.048-.071-.42.203-1.024 1.035-2.282.48-5.633-.8-4.834-1.263.789-1.468-1.879-.321-4.167.641-1.278 2.179-2.803 3.465-3.435 3.08-1.514-2.316-2.459-5.88-1.03-1.671.671-2.651 1.272-3.837 2.353l-.933.852.126-.645c.186-.951-.091-1.221-1.308-1.276-4.098-.184-4.256-5.351-.299-9.793 2.282-2.562.674-3.021-3.526-1.007-1.519.728-3.67 2.616-4.625 4.057-.53.8-.659.89-.883.621-.435-.524-1.126-.359-1.59.379-2.834 4.506-8.241-3.902-6.263-9.737.906-2.671.15-3.153-2.497-1.594m87.441 29.078c-.419.422-.383 28.815.038 29.164.225.187 2.426.232 8.624.179l8.322-.073 1.727-.579c5.849-1.962 7.576-5.178 7.582-14.118.006-8.83-1.886-12.085-8.251-14.2-1.79-.595-17.499-.92-18.042-.373m29.831.012c-.368.368-.368 28.755 0 29.122.436.436 7.868.35 8.238-.095.227-.273.314-1.746.397-6.666l.105-6.316 4.022 6.075c2.211 3.34 4.244 6.34 4.516 6.665l.495.591h3.677c3.419 0 3.693-.029 3.897-.409.144-.271.219-5.163.219-14.406s-.075-14.135-.219-14.405c-.244-.455-7.562-.635-8.247-.203-.268.17-.334 1.277-.423 7.093l-.106 6.892-4.209-6.772c-2.315-3.724-4.37-6.917-4.567-7.096-.465-.42-7.382-.482-7.795-.07m29.852-.012c-.42.422-.383 28.815.037 29.164.226.187 2.427.232 8.625.179l8.322-.073 1.726-.579c5.849-1.962 7.577-5.178 7.583-14.118.005-8.83-1.886-12.085-8.251-14.2-1.791-.595-17.499-.92-18.042-.373m-44.567 7.835c1.482.982 1.647 1.59 1.722 6.353.107 6.862-.443 7.675-5.37 7.939l-2.42.13v-15.126l2.609.071c2.41.064 2.674.113 3.459.633m59.682 0c1.483.982 1.648 1.59 1.722 6.353.107 6.862-.442 7.675-5.369 7.939l-2.421.13v-15.126l2.609.071c2.41.064 2.674.113 3.459.633"/></g></svg>